<svg width="30" height="30" viewBox="0 0 30 30" fill="none" xmlns="http://www.w3.org/2000/svg">
<g clip-path="url(#clip0)">
<path d="M15.0051 7.29758C10.7514 7.29758 7.30762 10.7451 7.30762 14.9951C7.30762 19.2488 10.7551 22.6926 15.0051 22.6926C19.2589 22.6926 22.7026 19.2451 22.7026 14.9951C22.7026 10.7413 19.2551 7.29758 15.0051 7.29758ZM15.0051 19.9913C12.2439 19.9913 10.0089 17.7551 10.0089 14.9951C10.0089 12.2351 12.2451 9.99883 15.0051 9.99883C17.7651 9.99883 20.0014 12.2351 20.0014 14.9951C20.0026 17.7551 17.7664 19.9913 15.0051 19.9913Z" fill="black"/>
<path d="M21.185 0.0950268C18.425 -0.0337232 11.5888 -0.0274732 8.82629 0.0950268C6.39879 0.208777 4.25754 0.795027 2.53129 2.52128C-0.35371 5.40628 0.0150399 9.29378 0.0150399 14.995C0.0150399 20.83 -0.30996 24.6275 2.53129 27.4688C5.42754 30.3638 9.37129 29.985 15.005 29.985C20.785 29.985 22.78 29.9888 24.8238 29.1975C27.6025 28.1188 29.7 25.635 29.905 21.1738C30.035 18.4125 30.0275 11.5775 29.905 8.81503C29.6575 3.54878 26.8313 0.355027 21.185 0.0950268ZM25.5538 25.56C23.6625 27.4513 21.0388 27.2825 14.9688 27.2825C8.71879 27.2825 6.21254 27.375 4.38379 25.5413C2.27754 23.445 2.65879 20.0788 2.65879 14.975C2.65879 8.06878 1.95004 3.09503 8.88129 2.74003C10.4738 2.68378 10.9425 2.66503 14.9513 2.66503L15.0075 2.70253C21.6688 2.70253 26.895 2.00503 27.2088 8.93503C27.28 10.5163 27.2963 10.9913 27.2963 14.9938C27.295 21.1713 27.4125 23.6925 25.5538 25.56Z" fill="black"/>
<path d="M23.0075 8.79247C24.0009 8.79247 24.8062 7.98715 24.8062 6.99373C24.8062 6.0003 24.0009 5.19498 23.0075 5.19498C22.0141 5.19498 21.2087 6.0003 21.2087 6.99373C21.2087 7.98715 22.0141 8.79247 23.0075 8.79247Z" fill="black"/>
</g>
<defs>
<clipPath id="clip0">
<rect width="30" height="30" fill="white"/>
</clipPath>
</defs>
</svg>
