<svg width="30" height="25" viewBox="0 0 30 25" fill="none" xmlns="http://www.w3.org/2000/svg">
<path d="M26.9175 6.23462C28.1375 5.34615 29.1637 4.23718 30 2.96026V2.95897C28.8838 3.46026 27.6963 3.79359 26.4563 3.95513C27.7313 3.17436 28.705 1.94744 29.1625 0.469231C27.9737 1.19615 26.6612 1.70897 25.2625 1.99615C24.1337 0.76282 22.525 0 20.77 0C17.365 0 14.6238 2.83462 14.6238 6.30897C14.6238 6.80897 14.665 7.28974 14.7662 7.74744C9.65375 7.49103 5.12875 4.97821 2.08875 1.14872C1.55875 2.09359 1.24625 3.17436 1.24625 4.33718C1.24625 6.52179 2.3425 8.45769 3.97875 9.57949C2.99 9.56026 2.02125 9.26539 1.2 8.80256V8.8718C1.2 11.9372 3.33125 14.4833 6.1275 15.0705C5.62625 15.2115 5.08125 15.2782 4.515 15.2782C4.12125 15.2782 3.72375 15.2551 3.35125 15.1705C4.1475 17.6679 6.41 19.5051 9.0975 19.5654C7.005 21.2436 4.3475 22.2551 1.47125 22.2551C0.9675 22.2551 0.48375 22.2321 0 22.1692C2.725 23.9705 5.9525 25 9.435 25C20.2887 25 27.3625 15.7128 26.9175 6.23462Z" fill="black"/>
</svg>
