<?xml version="1.0" encoding="utf-8"?>
<!-- Svg Vector Icons : http://www.onlinewebfonts.com/icon -->
<!DOCTYPE svg PUBLIC "-//W3C//DTD SVG 1.1//EN" "http://www.w3.org/Graphics/SVG/1.1/DTD/svg11.dtd">
<svg version="1.1" xmlns="http://www.w3.org/2000/svg" xmlns:xlink="http://www.w3.org/1999/xlink" width="24" height="24" x="0px" y="0px" viewBox="0 0 1000 1000" enable-background="new 0 0 1000 1000" xml:space="preserve">
<metadata> Svg Vector Icons : http://www.onlinewebfonts.com/icon </metadata>
<g><g transform="translate(0.000000,511.000000) scale(0.100000,-0.100000)"><path d="M164.4,4161.6c-54-49.8-64.4-74.7-64.4-155.7v-97.6l940.5-928.1c514.9-510.8,1370.3-1353.7,1897.7-1872.8l959.2-944.7v-2020.2l2.1-2022.3l60.2-60.2c118.4-118.3,122.5-116.3,1133.7,458.8c502.5,286.5,934.3,544,961.3,573l45.7,51.9l2.1,1509.5V162.7l948.9,934.3c521.2,512.8,1376.6,1355.8,1899.8,1872.8l948.9,938.5v95.5c0,78.9-10.4,108-60.2,157.8l-60.2,60.2H5004.2H228.7L164.4,4161.6z M9007.2,3648.8c-74.7-74.7-847.1-836.7-1715-1694.2c-870-857.5-1592.5-1580-1605-1609.1c-16.6-35.3-22.8-490-22.8-1519.8v-1472.1l-658.2-373.7L4346-3393.9l-10.4,1860.3c-6.2,1025.7-18.7,1877-27,1895.6c-8.3,16.6-718.4,724.6-1578,1571.7c-859.6,845-1632,1609.1-1717.1,1694.2l-153.6,157.8H5000h4140.1L9007.2,3648.8z"/></g></g>
</svg>