<svg width="30" height="37" viewBox="0 0 30 37" fill="none" xmlns="http://www.w3.org/2000/svg">
<path d="M15.5023 0C5.38028 0.00154169 0 6.49976 0 13.5854C0 16.8707 1.8324 20.97 4.7664 22.2697C5.60336 22.6474 5.49259 22.1864 6.21263 19.4268C6.26955 19.1971 6.24032 18.9982 6.05569 18.7839C1.86163 13.923 5.23719 3.92976 14.9038 3.92976C28.8938 3.92976 26.2798 23.3273 17.3378 23.3273C15.0331 23.3273 13.3161 21.5143 13.8592 19.2711C14.5177 16.5994 15.807 13.7272 15.807 11.8016C15.807 6.94839 8.59121 7.66836 8.59121 14.0987C8.59121 16.086 9.29278 17.4272 9.29278 17.4272C9.29278 17.4272 6.97113 26.8254 6.54034 28.5814C5.81107 31.5537 6.6388 36.3653 6.71111 36.7801C6.75573 37.0082 7.01113 37.0807 7.15421 36.8926C7.38346 36.592 10.1898 32.5805 10.9759 29.6806C11.2621 28.6245 12.436 24.3386 12.436 24.3386C13.2099 25.7385 15.4408 26.9102 17.8178 26.9102C24.889 26.9102 30 20.6818 30 12.9533C29.9754 5.54391 23.6474 0 15.5023 0V0Z" fill="black"/>
</svg>
