<svg width="0" height="0" class="hidden">
  <symbol fill="none" xmlns="http://www.w3.org/2000/svg" viewBox="0 0 24 24" id="cart_mobile">
    <path d="M9 22a1 1 0 100-2 1 1 0 000 2zm11 0a1 1 0 100-2 1 1 0 000 2zM1 1h4l2.68 13.39a2 2 0 002 1.61h9.72a2 2 0 002-1.61L23 6H6" stroke="#000" stroke-linecap="round" stroke-linejoin="round"></path>
  </symbol>
  <symbol fill="none" xmlns="http://www.w3.org/2000/svg" viewBox="0 0 24 24" id="empty_cart">
    <path d="M9 22a1 1 0 100-2 1 1 0 000 2zm11 0a1 1 0 100-2 1 1 0 000 2zM1 1h4l2.68 13.39a2 2 0 002 1.61h9.72a2 2 0 002-1.61L23 6H6" stroke="#000" stroke-linecap="round" stroke-linejoin="round"></path>
  </symbol>
  <symbol fill="none" xmlns="http://www.w3.org/2000/svg" viewBox="0 0 16 32" id="facebook">
    <path d="M13.079 5.313H16V.225C15.496.156 13.763 0 11.744 0 7.533 0 4.648 2.65 4.648 7.519V12H0v5.688h4.648V32h5.698V17.69h4.46l.706-5.69h-5.168V8.083c0-1.644.443-2.77 2.734-2.77z" fill="#000"></path>
  </symbol>
  <symbol fill="none" xmlns="http://www.w3.org/2000/svg" viewBox="0 0 24 24" id="full_cart">
    <path d="M9 22a1 1 0 100-2 1 1 0 000 2zm11 0a1 1 0 100-2 1 1 0 000 2zM1 1h4l2.68 13.39a2 2 0 002 1.61h9.72a2 2 0 002-1.61L23 6H6" stroke="#000" stroke-width="2" stroke-linecap="round" stroke-linejoin="round"></path>
  </symbol>
  <symbol fill="none" xmlns="http://www.w3.org/2000/svg" viewBox="0 0 22 21" id="heart">
    <path d="M19.458 2.68a5.257 5.257 0 00-1.708-1.243A4.89 4.89 0 0015.736 1a4.89 4.89 0 00-2.014.437 5.258 5.258 0 00-1.708 1.243L11 3.784 9.986 2.68C8.998 1.605 7.66 1 6.264 1s-2.735.605-3.722 1.68C1.555 3.755 1 5.213 1 6.734c0 1.52.555 2.978 1.542 4.053l1.014 1.105L11 20l7.444-8.108 1.014-1.104a5.79 5.79 0 001.141-1.86A6.171 6.171 0 0021 6.734c0-.753-.136-1.499-.4-2.194a5.79 5.79 0 00-1.142-1.86v0z" stroke="#000" stroke-linecap="round" stroke-linejoin="round"></path>
  </symbol>
  <symbol fill="none" xmlns="http://www.w3.org/2000/svg" viewBox="0 0 30 30" id="instagram">
    <g clip-path="url(#clip0)" fill="#000">
      <path d="M15.005 7.298a7.697 7.697 0 00-7.697 7.697 7.697 7.697 0 007.697 7.698 7.697 7.697 0 007.698-7.698 7.697 7.697 0 00-7.698-7.697zm0 12.693a4.995 4.995 0 01-4.996-4.996A4.995 4.995 0 0115.005 10a4.995 4.995 0 014.996 4.996 4.994 4.994 0 01-4.996 4.996z"></path>
      <path d="M21.185.095c-2.76-.129-9.596-.122-12.359 0-2.427.114-4.568.7-6.295 2.426C-.354 5.406.015 9.294.015 14.995c0 5.835-.325 9.633 2.516 12.474 2.897 2.895 6.84 2.516 12.474 2.516 5.78 0 7.775.004 9.819-.787 2.778-1.08 4.876-3.563 5.081-8.024.13-2.761.122-9.596 0-12.359-.248-5.266-3.074-8.46-8.72-8.72zm4.369 25.465c-1.891 1.891-4.515 1.723-10.585 1.723-6.25 0-8.756.092-10.585-1.742-2.106-2.096-1.725-5.462-1.725-10.566 0-6.906-.709-11.88 6.222-12.235 1.593-.056 2.062-.075 6.07-.075l.056.038c6.662 0 11.888-.698 12.202 6.232.071 1.581.087 2.056.087 6.059-.001 6.177.117 8.698-1.742 10.566z"></path>
      <path d="M23.008 8.792a1.799 1.799 0 100-3.597 1.799 1.799 0 000 3.597z"></path>
    </g>
    <defs>
      <clipPath id="clip0">
        <path fill="#fff" d="M0 0h30v30H0z"></path>
      </clipPath>
    </defs>
  </symbol>
  <symbol fill="none" xmlns="http://www.w3.org/2000/svg" viewBox="0 0 62 62" id="mail">
    <path d="M10.333 10.333h41.334c2.841 0 5.166 2.325 5.166 5.167v31c0 2.842-2.325 5.167-5.166 5.167H10.333c-2.841 0-5.166-2.325-5.166-5.167v-31c0-2.842 2.325-5.167 5.166-5.167z" stroke="#000" stroke-width="2" stroke-linecap="round" stroke-linejoin="round"></path>
    <path d="M56.833 15.5L31 33.583 5.167 15.5" stroke="#000" stroke-width="2" stroke-linecap="round" stroke-linejoin="round"></path>
  </symbol>
  <symbol fill="none" xmlns="http://www.w3.org/2000/svg" viewBox="0 0 38 22" id="Menu_mobile">
    <path stroke="#000" stroke-width="2" d="M0 11h38M0 1h38M0 21h38"></path>
  </symbol>
  <symbol fill="none" xmlns="http://www.w3.org/2000/svg" viewBox="0 0 30 30" id="messenger">
    <path d="M0 13.889c0 4.37 2.18 8.268 5.589 10.815V30l5.108-2.802c1.362.376 2.806.58 4.302.58C23.283 27.779 30 21.562 30 13.89 30.001 6.219 23.285 0 15 0 6.718 0 0 6.218 0 13.889zm13.418-3.89l3.913 4.073L24.69 10l-8.2 8.702-3.82-4.072-7.454 4.074L13.418 10z" fill="#000"></path>
  </symbol>
  <symbol fill="none" xmlns="http://www.w3.org/2000/svg" viewBox="0 0 30 37" id="pinterest">
    <path d="M15.502 0C5.38.002 0 6.5 0 13.585c0 3.286 1.832 7.385 4.766 8.685.837.377.727-.084 1.447-2.843a.656.656 0 00-.157-.643C1.862 13.923 5.237 3.93 14.904 3.93c13.99 0 11.376 19.397 2.434 19.397-2.305 0-4.022-1.813-3.479-4.056.659-2.672 1.948-5.544 1.948-7.47 0-4.853-7.216-4.133-7.216 2.298 0 1.987.702 3.328.702 3.328S6.97 26.825 6.54 28.581c-.729 2.973.099 7.784.171 8.2.045.227.3.3.443.112.23-.301 3.036-4.313 3.822-7.212.286-1.056 1.46-5.342 1.46-5.342.774 1.4 3.005 2.571 5.382 2.571C24.889 26.91 30 20.682 30 12.953 29.975 5.543 23.647 0 15.502 0z" fill="#000"></path>
  </symbol>
  <symbol fill="none" xmlns="http://www.w3.org/2000/svg" viewBox="0 0 20 20" id="search">
    <path d="M9 17A8 8 0 109 1a8 8 0 000 16zm10 2l-4.35-4.35" stroke="#000" stroke-linecap="round" stroke-linejoin="round"></path>
  </symbol>
  <symbol fill="none" xmlns="http://www.w3.org/2000/svg" viewBox="0 0 30 25" id="telegram">
    <path d="M11.772 16.477l-.497 6.98c.71 0 1.018-.305 1.387-.672l3.329-3.18 6.897 5.05c1.265.705 2.157.334 2.498-1.163l4.527-21.215.002-.002c.401-1.87-.677-2.6-1.91-2.142L1.394 10.322c-1.817.705-1.789 1.717-.309 2.176l6.804 2.116 15.804-9.889c.744-.492 1.42-.22.864.273L11.772 16.477z" fill="#000"></path>
  </symbol>
  <symbol fill="none" xmlns="http://www.w3.org/2000/svg" viewBox="0 0 24 24" id="trash">
    <path d="M3 6h18M8 6V4a2 2 0 012-2h4a2 2 0 012 2v2m3 0v14a2 2 0 01-2 2H7a2 2 0 01-2-2V6h14z" stroke="#000" stroke-linecap="round" stroke-linejoin="round"></path>
  </symbol>
  <symbol fill="none" xmlns="http://www.w3.org/2000/svg" viewBox="0 0 30 25" id="twitter">
    <path d="M26.918 6.235A12.457 12.457 0 0030 2.96a12.594 12.594 0 01-3.544.996A6.248 6.248 0 0029.163.47a12.122 12.122 0 01-3.9 1.527A6.09 6.09 0 0020.77 0c-3.405 0-6.146 2.835-6.146 6.309 0 .5.041.98.142 1.438C9.654 7.491 5.13 4.978 2.09 1.15a6.486 6.486 0 00-.843 3.188A6.36 6.36 0 003.98 9.58a5.963 5.963 0 01-2.78-.777v.069c0 3.065 2.131 5.611 4.928 6.198a5.972 5.972 0 01-1.613.208c-.394 0-.791-.023-1.164-.107.796 2.497 3.059 4.334 5.746 4.394a12.168 12.168 0 01-7.626 2.69c-.504 0-.987-.023-1.471-.086A17.007 17.007 0 009.435 25c10.854 0 17.928-9.287 17.483-18.765z" fill="#000"></path>
  </symbol>
</svg>